<svg xmlns="http://www.w3.org/2000/svg" xmlns:xlink="http://www.w3.org/1999/xlink" width="70px" height="65px" viewBox="0 0 70 65" version="1.1">
  <title>Temperature icon@0.5x</title>
  <g id="Front-Test" stroke="none" stroke-width="1" fill="none" fill-rule="evenodd">
      <g id="Temperature-Converter-Empty" transform="translate(-685.000000, -140.000000)">
          <g id="Temperature-icon" transform="translate(685.000000, 140.000000)">
              <g id="Decorations">
                  <g id="Group-13" transform="translate(0.000000, 6.127660)">
                      <g id="Group_109" transform="translate(64.775845, 4.948040) rotate(199.000000) translate(-64.775845, -4.948040) translate(61.275845, 1.448040)" fill="#062A67" fill-rule="nonzero" opacity="0.27469308">
                          <path d="M3.79856383,6.3382943 C2.4662005,6.39904222 1.22961387,5.67205404 0.675800281,4.5024244 C0.121986687,3.33279475 0.362455229,1.95602589 1.2830577,1.02565736 C2.20366016,0.0952888321 3.61903535,-0.201351787 4.85731764,0.276548084 C6.09559993,0.754447955 6.90746402,1.91066427 6.90752547,3.19635175 C6.94611231,4.89036129 5.55589418,6.29532732 3.79856383,6.3382943 L3.79856383,6.3382943 Z M3.79856383,1.03997633 C2.88425161,0.998331776 2.03568623,1.49723698 1.65565247,2.29987882 C1.27561872,3.10252065 1.44063045,4.04729972 2.07236228,4.68576191 C2.70409411,5.32422411 3.6753567,5.52782503 4.52512513,5.19992234 C5.37489355,4.87201965 5.93208021,4.07863142 5.93220778,3.19635175 C5.95907151,2.03354225 5.00484882,1.06896515 3.79856383,1.03955533 L3.79856383,1.03997633 Z" id="Path_531"/>
                      </g>
                      <path d="M6.60735782,26.0480672 L6.60735782,23.2253217 C6.61714484,23.000978 6.49935539,22.7894903 6.30056706,22.6744874 C6.10177874,22.5594846 5.85400089,22.5594846 5.65521257,22.6744874 C5.45642424,22.7894903 5.33863479,23.000978 5.34842181,23.2253217 L5.34842181,26.0480672 C5.33863479,26.2724109 5.45642424,26.4838986 5.65521257,26.5989014 C5.85400089,26.7139043 6.10177874,26.7139043 6.30056706,26.5989014 C6.49935539,26.4838986 6.61714484,26.2724109 6.60735782,26.0480672 L6.60735782,26.0480672 Z M6.55649824,31.0825632 L6.55649824,28.2598177 C6.56628526,28.0354739 6.44849581,27.8239863 6.24970748,27.7089834 C6.05091915,27.5939806 5.80314131,27.5939806 5.60435299,27.7089834 C5.40556466,27.8239863 5.28777521,28.0354739 5.29756222,28.2598177 L5.29756222,31.0825632 C5.28777521,31.3069069 5.40556466,31.5183946 5.60435299,31.6333974 C5.80314131,31.7484003 6.05091915,31.7484003 6.24970748,31.6333974 C6.44849581,31.5183946 6.56628526,31.3069069 6.55649824,31.0825632 L6.55649824,31.0825632 Z M10.7328303,27.4170298 C10.7410875,27.1014595 10.457312,26.8396479 10.0987275,26.8320058 L7.58504421,26.8320058 C7.23081071,26.8477926 6.95280337,27.1051479 6.95280337,27.4172798 C6.95280337,27.7294118 7.23081071,27.986767 7.58504421,28.0025539 L10.0987275,28.0025539 C10.457175,27.9946394 10.7407719,27.7329926 10.7328303,27.4175298 L10.7328303,27.4170298 Z M5.31331364,27.3697835 C5.32156338,27.0542132 5.03804364,26.7924016 4.67978224,26.7847594 L2.16495775,26.7847594 C1.81104342,26.8005463 1.53328657,27.0579015 1.53328657,27.3700335 C1.53328657,27.6821654 1.81104342,27.9395206 2.16495775,27.9553075 L4.67637615,27.9553075 C4.84887823,27.952159 5.01288118,27.8887286 5.13224803,27.7789929 C5.25161489,27.6692572 5.31655022,27.5222213 5.31274596,27.3702835 L5.31331364,27.3697835 Z" id="Path_532" fill="#062A67" fill-rule="nonzero" transform="translate(6.133146, 27.153942) rotate(199.000000) translate(-6.133146, -27.153942) "/>
                      <path d="M54.6687791,31.9276631 L54.6687791,30.5162904 C54.6736726,30.4041185 54.6147778,30.2983747 54.5153837,30.2408733 C54.4159895,30.1833718 54.2921006,30.1833718 54.1927064,30.2408733 C54.0933123,30.2983747 54.0344175,30.4041185 54.0393111,30.5162904 L54.0393111,31.9276631 C54.0344175,32.039835 54.0933123,32.1455788 54.1927064,32.2030803 C54.2921006,32.2605817 54.4159895,32.2605817 54.5153837,32.2030803 C54.6147778,32.1455788 54.6736726,32.039835 54.6687791,31.9276631 L54.6687791,31.9276631 Z M54.6433493,34.4449111 L54.6433493,33.0335384 C54.6482428,32.9213665 54.5893481,32.8156227 54.4899539,32.7581212 C54.3905597,32.7006198 54.2666708,32.7006198 54.1672766,32.7581212 C54.0678825,32.8156227 54.0089878,32.9213665 54.0138813,33.0335384 L54.0138813,34.4449111 C54.0089878,34.557083 54.0678825,34.6628268 54.1672766,34.7203282 C54.2666708,34.7778297 54.3905597,34.7778297 54.4899539,34.7203282 C54.5893481,34.6628268 54.6482428,34.557083 54.6433493,34.4449111 L54.6433493,34.4449111 Z M56.7315153,32.6121444 C56.7356439,32.4543593 56.5937562,32.3234535 56.4144639,32.3196324 L55.1576223,32.3196324 C54.9805055,32.3275259 54.8415018,32.4562035 54.8415018,32.6122694 C54.8415018,32.7683354 54.9805055,32.897013 55.1576223,32.9049065 L56.4144639,32.9049065 C56.5936877,32.9009492 56.7354861,32.7701258 56.7315153,32.6123944 L56.7315153,32.6121444 Z M54.021757,32.5885213 C54.0258818,32.4307361 53.884122,32.2998303 53.7049913,32.2960093 L52.447579,32.2960093 C52.2706219,32.3039027 52.1317434,32.4325803 52.1317434,32.5886463 C52.1317434,32.7447122 52.2706219,32.8733899 52.447579,32.8812833 L53.7032882,32.8812833 C53.7895393,32.879709 53.8715407,32.8479938 53.9312242,32.793126 C53.9909076,32.7382582 54.0233753,32.6647402 54.0214731,32.5887713 L54.021757,32.5885213 Z" id="Path_532-Copy" fill="#F6A600" fill-rule="nonzero" transform="translate(54.431673, 32.480601) rotate(170.000000) translate(-54.431673, -32.480601) "/>
                      <ellipse id="Oval" stroke="#1ECE6D" stroke-width="0.680851064" opacity="0.8" cx="51.6187359" cy="55.689612" rx="1.57618268" ry="1.56195244"/>
                      <ellipse id="Oval-Copy-8" stroke="#FF0000" stroke-width="0.680851064" opacity="0.8" cx="14.9091944" cy="5.42678344" rx="1" ry="1"/>
                  </g>
                  <path d="M17.7069227,9.97695779 L50.6845478,8.99073465 L50.5366543,12.5979066 L47.4494657,25.3551663 C46.412477,27.1737024 44.2196664,28.0891078 40.8710341,28.1013825 C37.5224017,28.1136571 32.6424499,26.3735866 26.2311787,22.8811708 L17.7069227,9.97695779 Z" id="Rectangle" fill="#FFFFFF" transform="translate(34.195735, 18.546155) rotate(75.000000) translate(-34.195735, -18.546155) "/>
              </g>
              <circle id="Oval" fill="#FFFFFF" cx="44.0647059" cy="47.1442091" r="10.5"/>
              <g id="temperature-decrease(48x48)@1x" transform="translate(26.000000, 10.000026)">
                  <line x1="20.000009" y1="4" x2="24.000009" y2="4" id="Path" stroke="#221B38" stroke-width="2" stroke-linecap="round" stroke-linejoin="round"/>
                  <line x1="20.004809" y1="19.9926" x2="36.004809" y2="19.9926" id="Path" stroke="#221B38" stroke-width="2" stroke-linecap="round" stroke-linejoin="round"/>
                  <line x1="20.004809" y1="11.9956" x2="32.000009" y2="11.9956" id="Path" stroke="#221B38" stroke-width="2" stroke-linecap="round" stroke-linejoin="round"/>
                  <path d="M16.004889,29.1908 L16.004889,7.99854 C16.004889,5.79934 14.204889,4 12.004889,4 C9.80488899,4 8.00488899,5.79934 8.00488899,7.99854 L8.00488899,29.1908 C5.00488899,30.7902 3.40488899,34.3888 4.20488899,37.9876 C4.80488899,40.7866 7.20488899,43.1856 10.004889,43.7854 C15.204889,44.985 20.004809,40.9864 20.004809,35.9882 C20.004809,32.9894 18.404809,30.3904 16.004889,29.1908 Z" id="Path" fill="#F5A623" fill-rule="nonzero"/>
                  <path d="M12.004889,25.1908 L12.004889,3.99854 C12.004889,1.79934 10.204889,0 8.00488899,0 C5.80488899,0 4.00488899,1.79934 4.00488899,3.99854 L4.00488899,25.1908 C1.00488899,26.7902 -0.595111008,30.3888 0.204888992,33.9876 C0.804888992,36.7866 3.20488899,39.1856 6.00488899,39.7854 C11.204889,40.985 16.004809,36.9864 16.004809,31.9882 C16.004809,28.9894 14.404809,26.3904 12.004889,25.1908 Z" id="Path" stroke="#353535" stroke-width="2" stroke-linecap="round" stroke-linejoin="round"/>
                  <path d="M12.004889,36.9886 C12.557169,36.9886 13.004889,36.541 13.004889,35.9886 C13.004889,35.4364 12.557169,34.9886 12.004889,34.9886 C11.452609,34.9886 11.004889,35.4364 11.004889,35.9886 C11.004889,36.541 11.452609,36.9886 12.004889,36.9886 Z" id="Path" stroke="#353535" stroke-width="2" fill="#C4B6FF" fill-rule="nonzero" stroke-linecap="round" stroke-linejoin="round"/>
                  <path d="M8.00488899,32.9886 C8.55716899,32.9886 9.00488899,32.541 9.00488899,31.9886 C9.00488899,31.4364 8.55716899,30.9886 8.00488899,30.9886 C7.45260899,30.9886 7.00488899,31.4364 7.00488899,31.9886 C7.00488899,32.541 7.45260899,32.9886 8.00488899,32.9886 Z" id="Path" stroke="#353535" stroke-width="2" stroke-linecap="round" stroke-linejoin="round"/>
              </g>
          </g>
      </g>
  </g>
</svg>